{
  "asset": {
    "version": "2.0",
    "generator": "THREE.GLTFExporter"
  },
  "scenes": [
    {
      "nodes": [
        0
      ]
    }
  ],
  "scene": 0,
  "nodes": [
    {
      "children": [
        1,
        2,
        3,
        4,
        5,
        6,
        7,
        8
      ],
      "matrix": [
        0.01,
        0,
        0,
        0,
        0,
        0.01,
        0,
        0,
        0,
        0,
        0.01,
        0,
        0,
        0,
        0,
        1
      ]
    },
    {
      "matrix": [
        0.8578943578499841,
        0.4077589233275893,
        -0.3126498540154603,
        0,
        0.4292793640248686,
        -0.903171759756916,
        0,
        0,
        -0.28237651883888615,
        -0.13421413049422481,
        -0.9498684481464322,
        0,
        0,
        0,
        0,
        1
      ],
      "name": "Directional Light 3",
      "extensions": {
        "KHR_lights_punctual": {
          "light": 0
        }
      }
    },
    {
      "matrix": [
        0.19544262078017152,
        -0.5544394518965534,
        0.8089493656362106,
        0,
        -0.9431193994666796,
        -0.3324542048908536,
        0,
        0,
        0.2689386181495468,
        -0.7629358399177743,
        -0.587878324006569,
        0,
        0,
        0,
        0,
        1
      ],
      "name": "Directional Light 2",
      "extensions": {
        "KHR_lights_punctual": {
          "light": 1
        }
      }
    },
    {
      "matrix": [
        0.29411848563471676,
        0.5174650489796805,
        -0.803569685523538,
        0,
        0.8693813154105089,
        -0.4941418100253137,
        0,
        0,
        -0.3970773788860732,
        -0.6986084702244625,
        -0.5952106858143612,
        0,
        0,
        0,
        0,
        1
      ],
      "name": "Directional Light",
      "extensions": {
        "KHR_lights_punctual": {
          "light": 2
        }
      }
    },
    {
      "matrix": [
        0.7401387728990925,
        -0.5502884431208188,
        0.3864935008756178,
        0,
        -0.5966530831046034,
        -0.8024992825054558,
        0,
        0,
        0.310160757145705,
        -0.2306025388973291,
        -0.9222921303908588,
        0,
        0,
        0,
        0,
        1
      ],
      "name": "Directional Light 4",
      "extensions": {
        "KHR_lights_punctual": {
          "light": 3
        }
      }
    },
    {
      "matrix": [
        0.6639080781247066,
        0.17159343888387418,
        -0.7278610825787861,
        0,
        0.28877324883974065,
        0.838993835047253,
        0.46119340358166794,
        0,
        0.6898087231655587,
        -0.5163768357359848,
        0.5074631897586197,
        0,
        51,
        -10,
        0,
        1
      ],
      "name": "Sphere",
      "mesh": 0
    },
    {
      "matrix": [
        1,
        0,
        8.700093410695479e-10,
        0,
        4.791715113092164e-19,
        1,
        -5.507659385819305e-10,
        0,
        -8.700093410695479e-10,
        5.507659385819305e-10,
        1,
        0,
        -8.700093410695479e-7,
        5.507659385819301e-7,
        1000,
        1
      ],
      "name": "Default Camera",
      "camera": 0
    },
    {
      "matrix": [
        1,
        0,
        8.700093410695481e-10,
        0,
        4.791715113092165e-19,
        1,
        -5.507659385819304e-10,
        0,
        -8.700093410695481e-10,
        5.507659385819304e-10,
        1,
        0,
        -8.700093410695479e-7,
        5.5076593858193e-7,
        1000,
        1
      ],
      "camera": 1
    },
    {
      "matrix": [
        1,
        0,
        0,
        0,
        0,
        1,
        0,
        0,
        0,
        0,
        1,
        0,
        0,
        1,
        0,
        1
      ],
      "name": "Default Ambient Light"
    }
  ],
  "extensions": {
    "KHR_lights_punctual": {
      "lights": [
        {
          "name": "Directional Light 3",
          "color": [
            1,
            0.6196078431372549,
            0.9450980392156862
          ],
          "intensity": 1.4,
          "type": "directional"
        },
        {
          "name": "Directional Light 2",
          "color": [
            0.20784313725490197,
            0.2,
            1
          ],
          "intensity": 1,
          "type": "directional"
        },
        {
          "name": "Directional Light",
          "color": [
            1,
            0.5019607843137255,
            0.39215686274509803
          ],
          "intensity": 1,
          "type": "directional"
        },
        {
          "name": "Directional Light 4",
          "color": [
            0.4470588235294118,
            0.7294117647058823,
            1
          ],
          "intensity": 1.9,
          "type": "directional"
        }
      ]
    }
  },
  "bufferViews": [
    {
      "buffer": 0,
      "byteOffset": 0,
      "byteLength": 199692,
      "target": 34962,
      "byteStride": 12
    },
    {
      "buffer": 0,
      "byteOffset": 199692,
      "byteLength": 199692,
      "target": 34962,
      "byteStride": 12
    },
    {
      "buffer": 0,
      "byteOffset": 399384,
      "byteLength": 133128,
      "target": 34962,
      "byteStride": 8
    },
    {
      "buffer": 0,
      "byteOffset": 532512,
      "byteLength": 195072,
      "target": 34963
    }
  ],
  "buffers": [
    {
      "byteLength": 727584,
      "uri": "data:application/octet-stream;base64,"
    }
  ],
  "accessors": [
    {
      "bufferView": 0,
      "componentType": 5126,
      "count": 16641,
      "max": [
        219,
        219,
        219
      ],
      "min": [
        -219,
        -219,
        -219
      ],
      "type": "VEC3"
    },
    {
      "bufferView": 1,
      "componentType": 5126,
      "count": 16641,
      "max": [
        1,
        1,
        1
      ],
      "min": [
        -1,
        -1,
        -1
      ],
      "type": "VEC3"
    },
    {
      "bufferView": 2,
      "componentType": 5126,
      "count": 16641,
      "max": [
        1.00390625,
        1
      ],
      "min": [
        -0.00390625,
        0
      ],
      "type": "VEC2"
    },
    {
      "bufferView": 3,
      "componentType": 5123,
      "count": 97536,
      "max": [
        16640
      ],
      "min": [
        0
      ],
      "type": "SCALAR"
    }
  ],
  "meshes": [
    {
      "primitives": [
        {
          "mode": 4,
          "attributes": {
            "POSITION": 0,
            "NORMAL": 1,
            "TEXCOORD_0": 2
          },
          "extras": {
            "parameters": {
              "width": 438,
              "widthSegments": 128,
              "heightSegments": 128,
              "phiStart": 0,
              "phiLength": 6.283185307179586,
              "thetaStart": 0,
              "thetaLength": 3.141592653589793,
              "height": 438,
              "depth": 438,
              "type": "SphereGeometry"
            },
            "type": "SphereGeometry"
          },
          "indices": 3
        }
      ]
    }
  ],
  "cameras": [
    {
      "type": "orthographic",
      "orthographic": {
        "xmag": 6.255407999999999,
        "ymag": 3.0381083124999995,
        "zfar": 50000,
        "znear": 0
      },
      "name": "Camera"
    },
    {
      "type": "orthographic",
      "orthographic": {
        "xmag": 6.9312,
        "ymag": 3.366325,
        "zfar": 100000,
        "znear": 0
      }
    }
  ],
  "extensionsUsed": [
    "KHR_lights_punctual"
  ]
}